<svg xmlns="http://www.w3.org/2000/svg" fill="none" viewBox="0 0 196 18" class="h-[18px]"><g clip-path="url(#FullLogo_svg__a)"><path fill="#00A73C" d="M76.575 1.672H71.34v15.71H69.97V1.672h-5.233V.518h11.837zM78.086 3.534c0-1.856.627-3.016 3.148-3.016h5.508v1.154h-5.718c-.875 0-1.57.315-1.57 1.472v4.793h6.516v1.157h-6.515v5.662c0 1.157.694 1.472 1.57 1.472h5.717v1.154h-5.508c-2.521 0-3.148-1.16-3.148-3.016zM99.997 16.83c-.816.4-2.385.8-4.372.8-4.085 0-7.796-2.645-7.796-8.577 0-5.221 3.202-8.8 8.346-8.8 2.229 0 3.355.512 3.754.71l-.396 1.179c-.816-.402-1.966-.732-3.355-.732-4.219 0-6.932 2.82-6.932 7.646 0 4.825 2.518 7.422 6.778 7.422 1.369 0 2.693-.312 3.621-.755l.355 1.11zM113.466 17.383h-1.369V9.05h-8.768v8.333h-1.369V.518h1.369v7.354h8.768V.518h1.369zM127 15.312a.06.06 0 0 0 .059.036c.044 0 .068-.042.068-.075v-.032c-.16-2.202-.181-4.091-.181-6.658V.518h1.325v16.106a.82.82 0 0 1-.816.82.81.81 0 0 1-.695-.389l-5.821-9.204c-1.156-1.874-2.229-3.603-3.08-5.35l-.012-.02a.06.06 0 0 0-.056-.033c-.047 0-.068.042-.068.069v.032c.121 2.035.142 3.853.142 6.658v8.179h-1.304V1.306c0-.48.39-.85.846-.85.331 0 .579.184.715.398l5.904 9.285c1.241 1.993 2.184 3.558 2.959 5.146 0 0 0 .006.015.027M144.436 8.806c0 5.977-3.444 8.844-7.332 8.844-4.085 0-7.177-3.221-7.177-8.532 0-5.599 3.201-8.865 7.375-8.865 4.175 0 7.134 3.356 7.134 8.556m-13.096.265c0 3.733 2.054 7.443 5.809 7.443 3.754 0 5.874-3.6 5.874-7.643 0-3.51-1.81-7.488-5.809-7.488s-5.874 3.933-5.874 7.69M149.029 16.228h5.673v1.154h-5.463c-2.521 0-3.148-1.16-3.148-3.016V.518h1.369v14.238c0 1.157.694 1.472 1.569 1.472M168.682 8.806c0 5.977-3.444 8.844-7.331 8.844-4.086 0-7.178-3.221-7.178-8.532 0-5.599 3.202-8.865 7.376-8.865s7.133 3.356 7.133 8.556m-13.096.265c0 3.733 2.055 7.443 5.809 7.443s5.874-3.6 5.874-7.643c0-3.51-1.812-7.488-5.806-7.488s-5.874 3.933-5.874 7.69M181.471 15.08v-5.03h-3.71V8.915h5.056v6.015a2.366 2.366 0 0 1-1.801 2.3c-.83.181-1.842.327-2.968.327-5.983 0-8.147-4.29-8.147-8.532 0-4.888 3.136-8.69 8.611-8.69 1.591 0 3.024.333 3.843.735l-.396 1.133c-.839-.401-1.945-.71-3.512-.71-4.372 0-7.133 2.843-7.133 7.442s2.693 7.488 6.888 7.488c1.088 0 1.918-.122 2.524-.288.5-.137.745-.61.745-1.06M195.765.518l-5.543 9.576v7.289h-1.369v-7.29L183.641.519h1.546l2.584 4.911c.686 1.312 1.28 2.36 1.833 3.582h.068c.485-1.133 1.126-2.27 1.853-3.603l2.694-4.887h1.546z"></path><path fill="#5D6164" d="M30.375 17.383s-3.94-13.59-3.997-13.774c-.097-.31-.488-.268-.511.062-.018.265-.748 13.712-.748 13.712h-2.643s.843-12.89.964-14.265c.127-1.455.96-2.663 2.607-2.663 1.384 0 2.17.916 2.519 2.13.133.461 3.021 11.126 3.021 11.126s2.888-10.665 3.021-11.126c.35-1.214 1.139-2.13 2.52-2.13 1.646 0 2.48 1.208 2.607 2.663.118 1.374.963 14.265.963 14.265h-2.643s-.73-13.447-.748-13.712c-.02-.33-.41-.372-.51-.062-.06.184-3.998 13.774-3.998 13.774zM41.491 2.597h5.557v14.786h2.66V2.597h5.559V.517H41.493v2.08zm15.978 14.786h2.684V.518H57.47z"></path><path fill="#fff" d="M17.868 0H0v17.882h17.868z"></path><path fill="#221815" d="M17.362.509H.505v16.865h16.857z"></path><path fill="#fff" d="M10.347 2.21h6.019v1.464h-2.143v5.94H12.49v-5.94h-2.143zM14.137 10.19h-1.623v7.184h1.623zM6.49 9.615 8.1 4.513v5.102h1.68V2.21H7.142L5.638 7.041 4.13 2.21H1.493v7.405h1.68V4.513l1.613 5.102z"></path><path fill="#FABE00" d="M11.935 11.769c0 .324-.264.589-.586.589a.589.589 0 0 1 0-1.178c.322 0 .585.264.585.589"></path><path fill="#00A73B" d="M11.154 12.328a.55.55 0 0 1-.301-.24c-.722 1.201-1.62 1.166-1.62 1.166-.35 0-.639-.265-.976-.575-.42-.383-.896-.818-1.608-.818s-1.159.414-1.567.783c-.355.321-.665.598-1.085.61-.437.011-.819-.36-1.22-.756-.43-.42-.873-.854-1.429-.818 0 0-.58.018-.845.413v.512c.378-.586.866-.562.866-.562.4-.024.766.336 1.153.714.44.431.893.874 1.484.857.553-.018.937-.366 1.313-.703.393-.354.762-.69 1.324-.69s.975.37 1.366.723c.36.327.73.67 1.218.67 0 0 .978.107 1.921-1.289"></path><path fill="#FABE00" d="M11.935 13.944c0 .327-.264.589-.586.589a.589.589 0 0 1 0-1.178c.322 0 .585.264.585.588"></path><path fill="#00A73B" d="M11.154 14.5a.57.57 0 0 1-.301-.24c-.722 1.201-1.62 1.165-1.62 1.165-.35 0-.639-.264-.976-.574-.42-.384-.896-.818-1.608-.818s-1.159.414-1.567.78c-.355.32-.665.598-1.085.61-.437.011-.819-.36-1.22-.756-.43-.42-.873-.854-1.429-.818 0 0-.58.02-.845.413v.515c.378-.586.866-.562.866-.562.4-.024.766.336 1.153.714.44.431.893.874 1.484.856.553-.014.937-.366 1.313-.702.393-.354.762-.69 1.324-.69s.975.369 1.366.723c.36.327.73.667 1.218.667 0 0 .978.11 1.921-1.289"></path></g><defs><clipPath id="FullLogo_svg__a"><path fill="#fff" d="M0 0h195.765v17.882H0z"></path></clipPath></defs></svg>